<svg xmlns="http://www.w3.org/2000/svg" viewBox="0 0 1280 720" width="1280" height="720">
  <rect x="0" y="0" width="1280" height="720" fill="#FFFFFF" />

  <g id="header">
    <text x="56" y="48" font-family="Consolas, Courier New, monospace" font-size="11" fill="#8A8580">ISSUE 02 / ARCHITECTURE SHIFT</text>
    <rect x="56" y="65" width="34" height="5" fill="#CC5500" />
    <text font-weight="700" font-family="Arial, Microsoft YaHei, sans-serif" fill="#333333" font-size="38" x="56" y="110">Decoupling turns fragile containers</text><text font-weight="700" font-family="Arial, Microsoft YaHei, sans-serif" fill="#333333" font-size="38" x="56" y="153">into replaceable interfaces.</text><text x="56" y="173" font-family="Microsoft YaHei, PingFang SC, Arial, sans-serif" font-size="18" fill="#6B6B6B">The key move is a smaller contract between the brain, session, and hands.</text>
  </g>

  <g id="left-before">
    <text x="70" y="214" font-family="Consolas, Courier New, monospace" font-size="14" fill="#CC5500">BEFORE</text>
    <rect x="56" y="240" width="450" height="280" fill="#F4F2EF" stroke="#D9D9D6" stroke-width="1" />
    <text x="86" y="286" font-family="Arial, Microsoft YaHei, sans-serif" font-size="24" font-weight="700" fill="#333333">Single container</text>
    <text font-family="Microsoft YaHei, PingFang SC, Arial, sans-serif" fill="#6B6B6B" font-size="18" x="86" y="323">Session, harness, and sandbox</text><text font-family="Microsoft YaHei, PingFang SC, Arial, sans-serif" fill="#6B6B6B" font-size="18" x="86" y="351">share one environment.</text><g id="before-stack">
      <rect x="90" y="385" width="360" height="46" fill="#FFFFFF" stroke="#D9D9D6" stroke-width="1" />
      
  <g transform="translate(106.0, 396.0) scale(0.9166666666666666)" fill="none" stroke="#CC5500">
    <path d="M4 6a8 3 0 1 0 16 0a8 3 0 1 0 -16 0" />
    <path d="M4 6v6a8 3 0 0 0 16 0v-6" />
    <path d="M4 12v6a8 3 0 0 0 16 0v-6" />
  </g>
      <text x="142" y="414" font-family="Arial, Microsoft YaHei, sans-serif" font-size="16" font-weight="700" fill="#333333">Session log</text>
      <rect x="90" y="431" width="360" height="46" fill="#FFFFFF" stroke="#D9D9D6" stroke-width="1" />
      
  <g transform="translate(106.0, 442.0) scale(0.9166666666666666)" fill="none" stroke="#CC5500">
    <path d="M15.5 13a3.5 3.5 0 0 0 -3.5 3.5v1a3.5 3.5 0 0 0 7 0v-1.8" />
    <path d="M8.5 13a3.5 3.5 0 0 1 3.5 3.5v1a3.5 3.5 0 0 1 -7 0v-1.8" />
    <path d="M17.5 16a3.5 3.5 0 0 0 0 -7h-.5" />
    <path d="M19 9.3v-2.8a3.5 3.5 0 0 0 -7 0" />
    <path d="M6.5 16a3.5 3.5 0 0 1 0 -7h.5" />
    <path d="M5 9.3v-2.8a3.5 3.5 0 0 1 7 0v10" />
  </g>
      <text x="142" y="460" font-family="Arial, Microsoft YaHei, sans-serif" font-size="16" font-weight="700" fill="#333333">Harness loop</text>
      <rect x="90" y="477" width="360" height="46" fill="#FFFFFF" stroke="#D9D9D6" stroke-width="1" />
      
  <g transform="translate(106.0, 488.0) scale(0.9166666666666666)" fill="none" stroke="#CC5500">
    <path d="M12 3l8 4.5l0 9l-8 4.5l-8 -4.5l0 -9l8 -4.5" />
    <path d="M12 12l8 -4.5" />
    <path d="M12 12l0 9" />
    <path d="M12 12l-8 -4.5" />
  </g>
      <text x="142" y="506" font-family="Arial, Microsoft YaHei, sans-serif" font-size="16" font-weight="700" fill="#333333">Sandbox and tools</text>
    </g>
    <text font-family="Microsoft YaHei, PingFang SC, Arial, sans-serif" fill="#71362B" font-size="15" x="86" y="560">Failure mode: a stuck or dead container</text><text font-family="Microsoft YaHei, PingFang SC, Arial, sans-serif" fill="#71362B" font-size="15" x="86" y="583">can hide the root cause and lose state.</text></g>

  <g id="center-arrow">
    <line x1="538" y1="380" x2="645" y2="380" stroke="#CC5500" stroke-width="2" />
    <polygon points="645,380 630,371 630,389" fill="#CC5500" />
    <text x="540" y="352" font-family="Consolas, Courier New, monospace" font-size="13" fill="#8A8580">DECOUPLE</text>
  </g>

  <g id="right-after">
    <text x="706" y="214" font-family="Consolas, Courier New, monospace" font-size="14" fill="#CC5500">AFTER</text>
    <line x1="692" y1="240" x2="1224" y2="240" stroke="#D9D9D6" stroke-width="1" />

    <g id="node-brain">
      <rect x="704" y="278" width="170" height="104" fill="#FFFFFF" stroke="#D9D9D6" stroke-width="1" />
      
  <g transform="translate(724.0, 300.0) scale(1.25)" fill="none" stroke="#CC5500">
    <path d="M15.5 13a3.5 3.5 0 0 0 -3.5 3.5v1a3.5 3.5 0 0 0 7 0v-1.8" />
    <path d="M8.5 13a3.5 3.5 0 0 1 3.5 3.5v1a3.5 3.5 0 0 1 -7 0v-1.8" />
    <path d="M17.5 16a3.5 3.5 0 0 0 0 -7h-.5" />
    <path d="M19 9.3v-2.8a3.5 3.5 0 0 0 -7 0" />
    <path d="M6.5 16a3.5 3.5 0 0 1 0 -7h.5" />
    <path d="M5 9.3v-2.8a3.5 3.5 0 0 1 7 0v10" />
  </g>
      <text x="766" y="319" font-family="Arial, Microsoft YaHei, sans-serif" font-size="18" font-weight="700" fill="#333333">Brain</text>
      <text x="724" y="354" font-family="Consolas, Courier New, monospace" font-size="13" fill="#6B6B6B">harness loop</text>
    </g>

    <g id="node-session">
      <rect x="935" y="278" width="170" height="104" fill="#FFFFFF" stroke="#D9D9D6" stroke-width="1" />
      
  <g transform="translate(955.0, 300.0) scale(1.25)" fill="none" stroke="#CC5500">
    <path d="M4 6a8 3 0 1 0 16 0a8 3 0 1 0 -16 0" />
    <path d="M4 6v6a8 3 0 0 0 16 0v-6" />
    <path d="M4 12v6a8 3 0 0 0 16 0v-6" />
  </g>
      <text x="997" y="319" font-family="Arial, Microsoft YaHei, sans-serif" font-size="18" font-weight="700" fill="#333333">Session</text>
      <text x="955" y="354" font-family="Consolas, Courier New, monospace" font-size="13" fill="#6B6B6B">append-only log</text>
    </g>

    <g id="node-hands">
      <rect x="820" y="466" width="170" height="104" fill="#FFFFFF" stroke="#D9D9D6" stroke-width="1" />
      
  <g transform="translate(840.0, 488.0) scale(1.25)" fill="none" stroke="#CC5500">
    <path d="M12 3l8 4.5l0 9l-8 4.5l-8 -4.5l0 -9l8 -4.5" />
    <path d="M12 12l8 -4.5" />
    <path d="M12 12l0 9" />
    <path d="M12 12l-8 -4.5" />
  </g>
      <text x="882" y="507" font-family="Arial, Microsoft YaHei, sans-serif" font-size="18" font-weight="700" fill="#333333">Hands</text>
      <text x="840" y="542" font-family="Consolas, Courier New, monospace" font-size="13" fill="#6B6B6B">sandbox + tools</text>
    </g>

    <line x1="874" y1="330" x2="935" y2="330" stroke="#CC5500" stroke-width="2" />
    <polygon points="935,330 920,321 920,339" fill="#CC5500" />
    <line x1="789" y1="382" x2="858" y2="466" stroke="#CC5500" stroke-width="2" />
    <polygon points="858,466 843,459 852,450" fill="#CC5500" />
    <line x1="1020" y1="382" x2="948" y2="466" stroke="#CC5500" stroke-width="2" />
    <polygon points="948,466 954,450 963,459" fill="#CC5500" />

    <g id="interface-strip">
      <rect x="704" y="602" width="500" height="38" fill="#F4F2EF" />
      <text x="724" y="626" font-family="Consolas, Courier New, monospace" font-size="14" fill="#333333">execute(name,input) -&gt; string</text>
      <text x="1010" y="626" font-family="Consolas, Courier New, monospace" font-size="14" fill="#71362B">wake(sessionId)</text>
    </g>
  </g>

  <g id="footer">
    <line x1="56" y1="685" x2="1224" y2="685" stroke="#D9D9D6" stroke-width="1" />
    <text x="56" y="704" font-family="Consolas, Courier New, monospace" font-size="11" fill="#8A8580">Source: Anthropic Engineering, Scaling Managed Agents</text>
    <text x="1224" y="704" text-anchor="end" font-family="Consolas, Courier New, monospace" font-size="11" fill="#8A8580">02 / 03</text>
  </g>
</svg>